# xmcd
#
# Track frame offsets:
#	150
#	22014
#	42563
#	65840
#	89352
#	107035
#	123925
#	149006
#	203668
#	220071
#	241042
#	258294
#	277756
#
# Disc length: 3907 seconds
#
# Revision: 1
# Processed by: cddbd v1.5.2PL0 Copyright (c) Steve Scherf et al.
# Submitted via: audiograbber 1.83.01
#
DISCID=bd0f410d
DTITLE=Rob Tognoni - Alive! [Disc 1]
DYEAR=2018
DGENRE=Blues
TTITLE0=Birra For Lira
TTITLE1=Dirty Occupation
TTITLE2=Brave
TTITLE3=Bad Girl
TTITLE4=Heaven Or Hell
TTITLE5=Black Chair
TTITLE6=Drink Jack Boogie Refried
TTITLE7=Dark Angel
TTITLE8=Guitar Boogie Refried
TTITLE9=The Real Thing
TTITLE10=Hey Hey, My My
TTITLE11=If The Weather Get's Ruff
TTITLE12=1974
EXTD=
EXTT0=
EXTT1=
EXTT2=
EXTT3=
EXTT4=
EXTT5=
EXTT6=
EXTT7=
EXTT8=
EXTT9=
EXTT10=
EXTT11=
EXTT12=
PLAYORDER=
